<svg xmlns="http://www.w3.org/2000/svg" viewBox="0 0 200 220" fill="none">
  <rect x="65" y="108" width="70" height="82" rx="4" fill="#16161f" stroke="#22c55e" stroke-width="1.5"/>
  <path d="M85 108 L100 128 L115 108" stroke="#22c55e" stroke-width="1.5" fill="none"/>
  <!-- Head slightly tilted -->
  <rect x="73" y="48" width="56" height="62" rx="6" fill="#1c1c28" stroke="#22c55e" stroke-width="2"/>
  <!-- Relaxed brows -->
  <line x1="82" y1="73" x2="94" y2="73" stroke="#22c55e" stroke-width="1.5"/>
  <line x1="106" y1="73" x2="118" y2="73" stroke="#22c55e" stroke-width="1.5"/>
  <!-- Eyes - satisfied half-closed -->
  <rect x="83" y="76" width="10" height="5" rx="2" fill="#22c55e"/>
  <rect x="107" y="76" width="10" height="5" rx="2" fill="#22c55e"/>
  <!-- Glasses -->
  <rect x="80" y="72" width="16" height="12" rx="2" fill="none" stroke="#22c55e" stroke-width="1.5"/>
  <rect x="104" y="72" width="16" height="12" rx="2" fill="none" stroke="#22c55e" stroke-width="1.5"/>
  <line x1="96" y1="78" x2="104" y2="78" stroke="#22c55e" stroke-width="1.5"/>
  <!-- Slight upward mouth -->
  <path d="M88 98 Q100 103 112 98" stroke="#22c55e" stroke-width="1.5" fill="none"/>
  <!-- Pen/checkmark -->
  <path d="M130 120 L145 135 L165 105" stroke="#22c55e" stroke-width="2.5" fill="none" stroke-linecap="round" stroke-linejoin="round"/>
  <circle cx="148" cy="125" r="15" fill="none" stroke="#22c55e" stroke-width="1" opacity="0.3"/>
</svg>
