<svg xmlns="http://www.w3.org/2000/svg" viewBox="0 0 200 220" fill="none">
  <rect x="60" y="115" width="72" height="75" rx="4" fill="#16161f" stroke="#ef4444" stroke-width="2"/>
  <path d="M80 115 L96 132 L112 115" stroke="#ef4444" stroke-width="2" fill="none"/>
  <!-- Head -->
  <rect x="70" y="52" width="58" height="62" rx="6" fill="#1c1c28" stroke="#ef4444" stroke-width="2"/>
  <!-- Angry brows -->
  <line x1="80" y1="69" x2="94" y2="75" stroke="#ef4444" stroke-width="2.5"/>
  <line x1="106" y1="75" x2="120" y2="69" stroke="#ef4444" stroke-width="2.5"/>
  <!-- Eyes - sharp -->
  <rect x="82" y="77" width="10" height="5" rx="0" fill="#ef4444"/>
  <rect x="106" y="77" width="10" height="5" rx="0" fill="#ef4444"/>
  <!-- Glasses -->
  <rect x="79" y="73" width="16" height="12" rx="1" fill="none" stroke="#ef4444" stroke-width="1.5"/>
  <rect x="103" y="73" width="16" height="12" rx="1" fill="none" stroke="#ef4444" stroke-width="1.5"/>
  <line x1="95" y1="79" x2="103" y2="79" stroke="#ef4444" stroke-width="1.5"/>
  <!-- Frown deep -->
  <path d="M86 100 Q99 94 112 100" stroke="#ef4444" stroke-width="2" fill="none"/>
  <!-- Clipboard slammed on desk -->
  <rect x="110" y="148" width="50" height="35" rx="2" fill="#1c1c28" stroke="#ef4444" stroke-width="1.5" transform="rotate(-15, 135, 165)"/>
  <!-- X mark on clipboard -->
  <line x1="120" y1="155" x2="148" y2="173" stroke="#ef4444" stroke-width="2" transform="rotate(-15, 135, 165)"/>
  <line x1="148" y1="155" x2="120" y2="173" stroke="#ef4444" stroke-width="2" transform="rotate(-15, 135, 165)"/>
  <!-- Impact lines -->
  <line x1="158" y1="140" x2="168" y2="130" stroke="#ef4444" stroke-width="1.5" opacity="0.6"/>
  <line x1="162" y1="145" x2="175" y2="140" stroke="#ef4444" stroke-width="1.5" opacity="0.4"/>
</svg>
